#!OML:ASF F:\VICON\USERDATA\INSTALL\rory3\rory3.ASF
:FULLY-SPECIFIED
:DEGREES
3349
root -1.55993 17.5858 0.174088 10.588 -11.3124 14.7216
lowerback 15.4804 1.24479 13.1402
upperback 3.77625 3.90822 5.40628
thorax -4.11124 1.79604 -2.31206
lowerneck 2.29386 -19.2791 -17.3612
upperneck -0.90502 -26.4273 19.0574
head 4.22268 -13.1837 6.50907
rclavicle 1.59028e-014 1.59028e-014
rhumerus 19.5198 -47.7222 -1.52383
rradius 22.5612
rwrist 35.1022
rhand -30.5439 -3.19745
rfingers 7.12502
rthumb -3.84273 -33.1426
lclavicle 1.59028e-014 1.59028e-014
lhumerus -69.5576 12.4551 53.1598
lradius 25.3634
lwrist 7.3096
lhand -25.358 16.1607
lfingers 7.12502
lthumb 1.16585 46.1373
rfemur -31.3259 6.57444 -6.07595
rtibia 41.8397
rfoot -22.063 -4.54894
rtoes 4.65626
lfemur -18.4561 8.44647 -32.8633
ltibia 19.5541
lfoot -9.57488 1.38822
ltoes -19.054
3350
root -1.56111 17.593 0.176357 10.601 -11.2106 14.3847
lowerback 15.4331 1.21928 13.0591
upperback 3.76929 3.85633 5.40768
thorax -4.10606 1.77209 -2.25644
lowerneck 1.9866 -19.3123 -17.1109
upperneck -0.392973 -26.47 18.7116
head 4.34636 -13.177 6.32976
rclavicle 3.18055e-014 3.18055e-014
rhumerus 18.4291 -46.4576 -0.728353
rradius 22.7226
rwrist 34.3056
rhand -30.6077 -3.2825
rfingers 7.12502
rthumb -3.90434 -33.2265
lclavicle 3.18055e-014 3.18055e-014
lhumerus -69.2099 12.2027 53.1421
lradius 25.588
lwrist 7.19467
lhand -25.2932 16.1302
lfingers 7.12502
lthumb 1.22842 46.1064
rfemur -31.1794 6.52242 -5.64883
rtibia 41.7161
rfoot -22.0023 -4.66412
rtoes 4.11093
lfemur -18.4414 7.93691 -32.4089
ltibia 19.7413
lfoot -9.62459 1.85343
ltoes -18.8568
3351
root -1.56474 17.5978 0.177214 10.5607 -11.1315 14.1419
lowerback 15.4643 1.17956 12.8789
upperback 3.78289 3.78004 5.36474
thorax -4.12825 1.73638 -2.19339
lowerneck 2.36318 -19.1871 -17.4006
upperneck -0.781725 -26.3578 19.5122
head 4.31369 -13.1475 6.65045
rclavicle 8.11041e-014 8.90555e-014
rhumerus 17.3698 -45.1471 -0.0176788
rradius 22.9489
rwrist 33.3356
rhand -30.6114 -3.48386
rfingers 7.12502
rthumb -3.9079 -33.4278
lclavicle 8.11041e-014 8.90555e-014
lhumerus -68.8583 11.8973 53.214
lradius 25.9773
lwrist 7.27484
lhand -24.8304 16.5841
lfingers 7.12502
lthumb 1.67535 46.5573
rfemur -31.0028 6.41469 -5.30461
rtibia 41.5785
rfoot -21.9089 -4.57062
rtoes 5.1116
lfemur -18.4065 7.53847 -32.0506
ltibia 19.9426
lfoot -9.73742 2.16064
ltoes -18.625
3352
root -1.56732 17.5995 0.184774 10.5244 -11.1225 14.0425
lowerback 15.3587 1.19978 12.5068
upperback 3.81582 3.72713 5.33584
thorax -4.06644 1.71908 -2.00959
lowerneck 2.56433 -19.092 -17.5758
upperneck -1.08985 -26.2544 20.0439
head 4.27755 -13.1145 6.86506
rclavicle 1.11319e-014 -1.90833e-014
rhumerus 16.9474 -44.6483 -0.0120937
rradius 23.0279
rwrist 33.4012
rhand -30.8169 -3.23798
rfingers 7.12502
rthumb -4.1063 -33.1782
lclavicle 1.11319e-014 -1.90833e-014
lhumerus -68.6006 11.5944 53.3124
lradius 26.4754
lwrist 7.48744
lhand -24.5487 16.8525
lfingers 7.12502
lthumb 1.94746 46.8234
rfemur -30.8739 6.09553 -5.09443
rtibia 41.4554
rfoot -21.7216 -4.41284
rtoes 5.02529
lfemur -18.4089 7.3592 -31.9069
ltibia 20.1843
lfoot -9.81642 2.40468
ltoes -18.9048
3353
root -1.57137 17.6052 0.193642 10.568 -11.1448 13.7953
lowerback 15.1234 1.24394 12.1756
upperback 3.89288 3.6892 5.3971
thorax -3.8874 1.71552 -1.74809
lowerneck 2.31875 -19.0976 -17.5474
upperneck -0.931759 -26.2508 20.0158
head 4.35519 -13.0957 6.82272
rclavicle -4.77083e-014 1.90833e-014
rhumerus 17.1396 -44.8376 -0.569062
rradius 22.938
rwrist 34.1866
rhand -31.0082 -3.29842
rfingers 7.12502
rthumb -4.29103 -33.2349
lclavicle -4.77083e-014 1.90833e-014
lhumerus -68.411 11.3043 53.5731
lradius 27.0822
lwrist 7.75406
lhand -24.5758 16.7454
lfingers 7.12502
lthumb 1.92128 46.7165
rfemur -30.8083 6.09669 -4.79813
rtibia 41.3528
rfoot -21.7098 -4.36029
rtoes 5.11372
lfemur -18.4671 7.09569 -31.5945
ltibia 20.4361
lfoot -9.93196 2.76872
ltoes -18.7314
3354
root -1.57633 17.6046 0.196342 10.6891 -11.0737 13.4004
lowerback 14.9109 1.27607 11.9577
upperback 3.89702 3.6671 5.45803
thorax -3.7896 1.71188 -1.55346
lowerneck 1.98492 -19.1936 -17.2912
upperneck -0.461273 -26.3711 19.6447
head 4.47916 -13.125 6.61996
rclavicle 4.77083e-015 3.49861e-014
rhumerus 16.5259 -44.1078 -0.38615
rradius 23.0824
rwrist 33.8339
rhand -31.1237 -3.17097
rfingers 7.12502
rthumb -4.40262 -33.1052
lclavicle 4.77083e-015 3.49861e-014
lhumerus -68.1286 11.1922 53.4136
lradius 27.3964
lwrist 7.67096
lhand -24.4155 16.8709
lfingers 7.12502
lthumb 2.07607 46.8405
rfemur -30.8073 5.91081 -4.26856
rtibia 41.2498
rfoot -21.5549 -4.41356
rtoes 4.33904
lfemur -18.6374 6.9537 -31.1365
ltibia 20.7292
lfoot -9.99286 2.9312
ltoes -18.8788
3355
root -1.57936 17.5992 0.197242 10.6693 -11.0137 13.2696
lowerback 14.8587 1.27468 11.5271
upperback 3.88032 3.59617 5.41908
thorax -3.81441 1.67944 -1.34858
lowerneck 1.20144 -19.3357 -16.939
upperneck 0.668505 -26.5489 18.7995
head 4.79702 -13.1436 6.19607
rclavicle -5.56597e-014 -2.22639e-014
rhumerus 15.9126 -43.1784 -0.215712
rradius 23.2201
rwrist 33.2638
rhand -31.3475 -3.10467
rfingers 7.12502
rthumb -4.61866 -33.0343
lclavicle -5.56597e-014 -2.22639e-014
lhumerus -67.6176 11.1028 53.2164
lradius 27.3013
lwrist 7.38373
lhand -24.1432 17.2719
lfingers 7.12502
lthumb 2.33907 47.2388
rfemur -30.7215 5.63635 -3.98872
rtibia 41.1392
rfoot -21.2209 -4.74659
rtoes 2.39823
lfemur -18.7632 6.84668 -30.9741
ltibia 21.077
lfoot -10.1086 3.07956
ltoes -19.2588
3356
root -1.57766 17.6017 0.20069 10.6938 -10.8249 12.8579
lowerback 14.7673 1.22035 11.3688
upperback 3.83736 3.49985 5.53031
thorax -3.83922 1.63159 -1.12649
lowerneck 0.89974 -19.3281 -16.8337
upperneck 1.19115 -26.5384 18.3948
head 4.92517 -13.1126 6.02592
rclavicle -6.67916e-014 -1.08139e-013
rhumerus 15.6999 -42.7171 -0.41049
rradius 23.2906
rwrist 33.3332
rhand -31.5052 -2.78463
rfingers 7.12502
rthumb -4.77094 -32.7109
lclavicle -6.67916e-014 -1.08139e-013
lhumerus -67.4044 10.8707 53.4135
lradius 27.569
lwrist 7.10426
lhand -24.4495 17.2588
lfingers 7.12502
lthumb 2.04326 47.2288
rfemur -30.5254 5.5057 -3.44951
rtibia 40.9964
rfoot -21.126 -5.00241
rtoes 1.38959
lfemur -18.8628 6.54835 -30.4806
ltibia 21.4533
lfoot -10.2998 3.31633
ltoes -19.1371
3357
root -1.57456 17.607 0.209053 10.6477 -10.6814 12.5587
lowerback 14.5994 1.17212 11.1419
upperback 3.85947 3.37869 5.57105
thorax -3.75341 1.57937 -0.934063
lowerneck 1.36782 -19.2114 -16.9593
upperneck 0.704925 -26.4164 18.8837
head 4.77533 -13.087 6.26129
rclavicle -4.13472e-014 -1.90833e-014
rhumerus 15.3036 -41.9315 -0.395242
rradius 23.3857
rwrist 32.8798
rhand -31.7428 -3.04844
rfingers 7.12502
rthumb -5.00036 -32.9694
lclavicle -4.13472e-014 -1.90833e-014
lhumerus -67.2855 10.5301 53.5608
lradius 27.8559
lwrist 7.11701
lhand -25.14 16.0329
lfingers 7.12502
lthumb 1.37635 46.0082
rfemur -30.2412 5.44137 -3.09884
rtibia 40.8378
rfoot -21.153 -4.80745
rtoes 2.36033
lfemur -18.878 6.3147 -30.1283
ltibia 21.8149
lfoot -10.4764 3.51835
ltoes -19.2942
3358
root -1.57242 17.6147 0.215708 10.5875 -10.5246 12.2386
lowerback 14.5387 1.15178 10.9598
upperback 3.87782 3.3164 5.58115
thorax -3.71883 1.55275 -0.811971
lowerneck 1.68162 -19.1884 -16.9749
upperneck 0.295166 -26.4041 19.309
head 4.6678 -13.1061 6.4296
rclavicle 3.18055e-015 3.49861e-014
rhumerus 14.8463 -41.3996 -0.44043
rradius 23.4746
rwrist 32.6004
rhand -31.6847 -3.25099
rfingers 7.12502
rthumb -4.94429 -33.1733
lclavicle 3.18055e-015 3.49861e-014
lhumerus -66.933 10.1627 53.6331
lradius 28.0201
lwrist 7.25417
lhand -25.4227 15.2286
lfingers 7.12502
lthumb 1.10329 45.2055
rfemur -29.9509 5.3029 -2.68186
rtibia 40.6636
rfoot -21.0966 -4.74559
rtoes 2.74558
lfemur -18.8796 6.12076 -29.7421
ltibia 22.167
lfoot -10.6303 3.67579
ltoes -19.2216
3359
root -1.56966 17.6216 0.220947 10.5534 -10.2725 11.8873
lowerback 14.4857 1.09314 10.8112
upperback 3.88286 3.21375 5.62393
thorax -3.70583 1.50486 -0.667395
lowerneck 1.29869 -19.2693 -16.8208
upperneck 0.768157 -26.5095 19.0454
head 4.8286 -13.125 6.26473
rclavicle -3.81667e-014 1.90833e-014
rhumerus 14.995 -41.7341 -1.17197
rradius 23.418
rwrist 33.3453
rhand -31.4239 -3.09595
rfingers 7.12502
rthumb -4.69242 -33.024
lclavicle -3.81667e-014 1.90833e-014
lhumerus -66.4932 9.97399 53.6401
lradius 28.2626
lwrist 7.19762
lhand -25.0379 15.5474
lfingers 7.12502
lthumb 1.47496 45.5221
rfemur -29.6408 5.17352 -2.22674
rtibia 40.4886
rfoot -21.1007 -4.77174
rtoes 2.82605
lfemur -18.8921 5.78805 -29.3147
ltibia 22.4727
lfoot -10.6795 3.92326
ltoes -19.3089
3360
root -1.5671 17.6223 0.227872 10.5102 -10.0869 11.721
lowerback 14.3186 1.07587 10.4185
upperback 3.90272 3.11115 5.6402
thorax -3.6272 1.46184 -0.414273
lowerneck 0.924096 -19.3516 -16.7261
upperneck 1.29899 -26.6216 18.7252
head 5.00592 -13.1473 6.08816
rclavicle 2.70347e-014 1.59028e-014
rhumerus 14.7227 -41.5145 -1.45125
rradius 23.5313
rwrist 33.5559
rhand -31.5321 -3.13758
rfingers 7.12502
rthumb -4.79691 -33.0633
lclavicle 2.70347e-014 1.59028e-014
lhumerus -66.0657 9.72454 53.812
lradius 28.6974
lwrist 7.34641
lhand -25.0287 16.2988
lfingers 7.12502
lthumb 1.48381 46.2734
rfemur -29.3822 5.10302 -2.01437
rtibia 40.3441
rfoot -21.1407 -4.76328
rtoes 3.32387
lfemur -18.9267 5.61753 -29.1391
ltibia 22.7428
lfoot -10.7533 4.10333
ltoes -19.9477
3361
root -1.56434 17.6232 0.237582 10.4037 -9.84946 11.4892
lowerback 14.1624 1.0171 10.1087
upperback 3.92182 2.96897 5.65399
thorax -3.55183 1.39848 -0.203008
lowerneck 1.27496 -19.2714 -16.894
upperneck 0.970483 -26.5623 19.2907
head 4.95106 -13.1407 6.3192
rclavicle 3.49861e-014 7.63333e-014
rhumerus 14.2724 -40.9673 -1.57239
rradius 23.691
rwrist 33.5337
rhand -31.6754 -2.98414
rfingers 7.12502
rthumb -4.93526 -32.9067
lclavicle 3.49861e-014 7.63333e-014
lhumerus -65.7236 9.52619 53.7268
lradius 29.0097
lwrist 7.18733
lhand -24.8746 16.5446
lfingers 7.12502
lthumb 1.63267 46.5181
rfemur -29.0207 5.01689 -1.70185
rtibia 40.1985
rfoot -21.1476 -4.81956
rtoes 3.18776
lfemur -18.8581 5.40633 -28.8557
ltibia 23.0165
lfoot -10.8607 4.21606
ltoes -20.099
